<?xml version="1.0" encoding="UTF-8"?>
<svg id="Layer_2" data-name="Layer 2" xmlns="http://www.w3.org/2000/svg" viewBox="0 0 601.7 131.78">
  <defs>
    <style>
      .cls-1 {
        fill: #153c7a;
      }

      .cls-2 {
        fill: #3e6fdb;
      }
    </style>
  </defs>
  <g id="_图层_1" data-name="图层 1">
    <g>
      <polygon class="cls-1" points="466.27 79.99 417.31 .62 394.49 .62 394.49 131.78 419.96 131.78 419.96 52.43 468.84 131.78 491.74 131.78 491.74 .62 466.27 .62 466.27 79.99"/>
      <polygon class="cls-1" points="46.39 0 0 131.78 27.17 131.78 56.68 40.64 86.2 131.78 113.28 131.78 66.88 0 46.39 0"/>
      <polygon class="cls-1" points="313.62 23.64 324.81 .89 238.78 .89 238.78 55.74 158.63 55.74 158.63 23.64 207.98 23.64 219.17 .89 133.14 .89 133.14 131.51 158.63 131.51 158.63 78.49 238.78 78.49 238.78 131.51 264.27 131.51 264.27 78.49 301.24 78.49 304.64 78.49 315.82 55.74 312.42 55.74 264.27 55.74 264.27 23.64 313.62 23.64"/>
      <polygon class="cls-1" points="541.15 77.01 592.71 77.01 592.71 54.28 541.15 54.28 541.15 23.64 590.5 23.64 601.7 .89 515.66 .89 515.66 131.51 590.5 131.51 601.7 108.75 541.15 108.75 541.15 77.01"/>
      <rect class="cls-1" x="344.59" y="44.89" width="25.47" height="86.89"/>
      <rect class="cls-2" x="344.59" y=".62" width="25.47" height="27.28"/>
    </g>
  </g>
</svg>