<?xml version="1.0" encoding="UTF-8"?><svg id="Layer_2" xmlns="http://www.w3.org/2000/svg" viewBox="0 0 1855.38 470"><defs><style>.cls-1{fill:none;}</style></defs><g id="_20230330_final"><path d="m401.79,155.4l-110.44-87.19-223.15,44.23v202.15l110.47,87.21,223.11-44.22v-202.17Zm-132.51-55.25v57.42l33.77-6.69v-35.65l48.78,38.5-162.84,32.27-70.83-55.9,151.11-29.95Zm-167.3,54.93l64.97,51.27v60.2l33.77-6.69v-48.62l167.3-33.16v136.86l-64.97-51.28v-60.19l-33.77,6.69v48.62l-167.3,33.16v-136.86Zm98.74,214.79v-57.42l-33.77,6.69v35.65l-48.78-38.5,162.84-32.27,70.83,55.9-151.11,29.95Z"/><path d="m574.21,227.41c10.38-8.69,15.63-21.04,15.63-36.76v-18.18c0-18.53-4.74-32.05-14.1-40.17-9.25-8.03-23.81-12.09-43.27-12.09h-62.47v228.3h66.3c19.9,0,34.47-4.08,43.31-12.14h0c8.9-8.11,13.42-21.83,13.42-40.77v-28.71c0-17.92-6.33-31.18-18.82-39.48Zm-71.45,16.14h36.74c6.4,0,11.35,1.8,15.16,5.51,3.79,3.69,5.62,8.58,5.62,14.96v34.77c0,7.35-1.68,12.7-4.98,15.91-3.33,3.23-8.75,4.88-16.12,4.88h-36.42v-76.03Zm54.33-49.71c0,6.36-1.94,11.3-5.92,15.1-4.02,3.83-8.88,5.69-14.86,5.69h-33.55v-65.5h33.55c7.37,0,12.74,1.59,15.96,4.72,3.2,3.12,4.83,8.42,4.83,15.75v24.24Z"/><path d="m682.61,317.96c-1.12-.98-1.69-2.81-1.69-5.45V120.2h-79.01v28.92h46.89v164.97c0,11.72,3,20.49,8.92,26.06,5.88,5.53,12.84,8.34,20.69,8.34h56.09v-28.92h-44.93c-4.24,0-6.13-.88-6.97-1.62Z"/><path d="m856.7,196.78c-9.26-8.48-23.62-12.78-42.68-12.78h-10.53c-19.06,0-33.42,4.3-42.68,12.78-9.32,8.54-14.05,22.25-14.05,40.76v57.42c0,18.51,4.73,32.23,14.05,40.76,9.25,8.48,23.61,12.78,42.68,12.78h10.53c19.06,0,33.42-4.3,42.68-12.78,9.32-8.54,14.05-22.25,14.05-40.76v-57.42c0-18.5-4.73-32.22-14.05-40.76Zm-77.82,34.38c0-5.9,1.71-10.3,5.23-13.45,3.55-3.18,9-4.79,16.2-4.79h16.91c7.19,0,12.64,1.61,16.2,4.78,3.52,3.15,5.23,7.55,5.23,13.45v70.18c0,5.9-1.71,10.3-5.23,13.45-3.55,3.17-9,4.79-16.2,4.79h-16.91c-7.2,0-12.65-1.61-16.2-4.79-3.52-3.14-5.23-7.54-5.23-13.45v-70.18Z"/><path d="m905.95,196.78c-9.32,8.54-14.05,22.25-14.05,40.76v57.42c0,18.73,4.67,32.49,13.89,40.92,9.15,8.37,23.56,12.62,42.84,12.62h43.65v-28.92h-46.84c-7.2,0-12.65-1.61-16.2-4.79-3.52-3.15-5.23-7.54-5.23-13.45v-70.18c0-5.9,1.71-10.3,5.23-13.45,3.55-3.18,9-4.79,16.2-4.79h46.84v-28.92h-43.65c-19.06,0-33.42,4.3-42.68,12.78Z"/><polygon points="1134.67 184 1093.86 184 1047.41 236.67 1047.41 120.2 1015.29 120.2 1015.29 348.5 1047.41 348.5 1047.41 278.67 1052.83 272.4 1098.68 348.5 1138.08 348.5 1076.72 249.61 1134.67 184"/><path d="m1212.35,215.58h-9.57c-6.16,0-11-1.89-14.8-5.79-3.81-3.9-5.67-8.7-5.67-14.68v-24.24c0-5.94,2.15-10.88,6.56-15.1,4.45-4.26,10.15-6.32,17.41-6.32h51.31v-29.24h-48.12c-19.06,0-33.95,4.78-44.27,14.21-10.38,9.49-15.65,23.8-15.65,42.52v12.12c0,18.25,4.86,32.42,14.44,42.11,9.59,9.7,22.74,14.62,39.1,14.62h9.57c5.87,0,10.09,1.64,12.92,5.01,2.89,3.46,4.36,8.12,4.36,13.87v33.18c0,5.94-2.15,10.88-6.56,15.1-4.45,4.26-10.15,6.32-17.41,6.32h-50.99v29.24h47.8c19.06,0,33.96-4.78,44.27-14.21,10.38-9.49,15.65-23.79,15.65-42.52v-21.05c0-18.23-4.47-32.12-13.3-41.29-8.85-9.19-21.32-13.84-37.05-13.84Z"/><path d="m1366.28,305.36c-.4,3.67-1.99,6.9-4.88,9.87-2.79,2.88-7.29,4.34-13.36,4.34h-17.23c-5.75,0-10.12-1.59-13.39-4.85-3.26-3.26-4.85-7.64-4.85-13.38v-117.34h-32.12v110.96c0,18.49,4.5,32.19,13.37,40.72,8.84,8.51,22.35,12.82,40.17,12.82h10.85c8.69,0,16.41-1.8,23.02-5.37v5.37h30.52v-164.5h-32.12v121.36Z"/><polygon points="1494.09 184 1415.08 184 1415.08 212.93 1461.98 212.93 1461.98 348.5 1541.31 348.5 1541.31 319.58 1494.09 319.58 1494.09 184"/><rect x="1460.38" y="120.2" width="35.3" height="33.71"/><path d="m1605.26,145.72h-32.11v38.28h-30.31v28.92h30.31v94.79c0,12.02,3.09,21.89,9.18,29.34,6.21,7.59,15.24,11.44,26.82,11.44h42.69v-28.92h-34.72c-4.28,0-7.39-.78-9.26-2.31-1.72-1.41-2.59-4.08-2.59-7.95v-96.39h46.57v-28.92h-46.57v-38.28Z"/><path d="m1788.11,279.92v-43.97c0-16.73-4.14-29.7-12.31-38.54-8.22-8.89-20.38-13.4-36.13-13.4h-14.99c-18.89,0-32.69,4.22-41,12.54s-12.54,22.11-12.54,41v57.42c0,18.73,4.67,32.49,13.89,40.92,9.15,8.37,23.56,12.62,42.84,12.62h50.03v-28.92h-53.22c-7.2,0-12.65-1.61-16.2-4.79-3.52-3.15-5.23-7.54-5.23-13.45v-21.42h84.85Zm-66.62-66.99h18.5c4.88,0,8.79,1.54,11.95,4.69,3.16,3.16,4.69,7.07,4.69,11.95v21.42h-53.38v-19.83c0-6.15,1.35-10.8,4-13.82,2.57-2.93,7.36-4.41,14.23-4.41Z"/><rect class="cls-1" width="1855.38" height="470"/></g></svg>