<?xml version="1.0" encoding="UTF-8"?><svg id="Layer_2" xmlns="http://www.w3.org/2000/svg" viewBox="0 0 1855.38 470"><defs><style>.cls-1{fill:none;}</style></defs><g id="_20230330_final"><path d="m597.67,133.67c-12.67-9.71-27.47-14.64-43.99-14.64s-31.33,4.93-43.99,14.64c-12.61,9.67-22.49,23.42-29.37,40.86-6.84,17.34-10.31,37.63-10.31,60.32s3.47,42.99,10.31,60.32c6.88,17.45,16.76,31.16,29.37,40.77,12.67,9.65,27.47,14.54,43.99,14.54s31.32-4.89,43.99-14.54c12.61-9.6,22.49-23.32,29.38-40.77,6.84-17.34,10.31-37.64,10.31-60.32s-3.47-42.98-10.31-60.32c-6.88-17.44-16.76-31.19-29.37-40.86Zm-15.21,175.39c-8.24,6.69-17.92,10.08-28.78,10.08s-20.55-3.39-28.78-10.08c-8.32-6.76-14.85-16.57-19.41-29.16-4.61-12.71-6.95-27.87-6.95-45.05s2.34-32.37,6.95-45.15c4.56-12.65,11.09-22.49,19.41-29.24h0c8.24-6.69,17.92-10.08,28.78-10.08s20.55,3.39,28.78,10.08c8.31,6.75,14.84,16.59,19.41,29.24,4.61,12.78,6.95,27.97,6.95,45.15s-2.34,32.33-6.94,45.05c-4.56,12.59-11.1,22.4-19.41,29.16Z"/><path d="m774.18,299.14c-7.14,6.46-15.16,11.46-23.84,14.87-8.68,3.4-17.76,5.13-26.99,5.13s-17.95-2.55-25.18-7.59c-7.27-5.06-12.99-12.21-17.02-21.25-4.06-9.12-6.12-19.64-6.12-31.25s2.18-21.94,6.49-31.12c4.27-9.11,10.26-16.3,17.78-21.36,7.5-5.05,16.1-7.6,25.59-7.6,8.86,0,16.53,1.55,22.8,4.6,6.17,3.01,10.87,7.28,13.97,12.68,3.12,5.46,4.71,11.84,4.71,18.96,0,4.89,1.04,8.37,3.19,10.62,2.14,2.25,5.66,3.39,10.45,3.39s8.31-1.14,10.45-3.39c2.15-2.26,3.19-5.73,3.19-10.62v-53.58c0-4.89-1.04-8.36-3.19-10.62h0c-2.18-2.28-5.59-3.39-10.45-3.39s-8.28,1.11-10.45,3.39c-2.15,2.25-3.19,5.73-3.19,10.62v5.39c-4.81-5.48-10.42-9.89-16.72-13.17-7.97-4.13-16.82-6.23-26.31-6.23-14.94,0-28.41,4.03-40.03,11.99-11.58,7.93-20.72,18.96-27.16,32.77-6.41,13.75-9.66,29.45-9.66,46.67s3.2,32.91,9.5,46.66c6.33,13.82,15.42,24.85,27.01,32.78,11.62,7.96,25.19,11.99,40.34,11.99,11.98,0,23.86-2.16,35.32-6.41,11.46-4.25,21.55-10.22,29.95-17.72,3.76-3.22,5.67-7.33,5.67-12.24,0-3.13-.86-6.42-2.55-9.78-4.78-9.33-10.93-11.19-17.56-5.19Z"/><path d="m953.88,299.37c-2.24,0-4.29.78-6.04,2.27-6.98,5.42-14.3,9.81-21.77,13.05-7.37,3.2-14.47,4.82-21.1,4.82-9.5,0-15.92-2.9-19.66-8.85-3.87-6.17-5.83-16.2-5.83-29.8v-65.26h61.82c4.15,0,7.21-1.22,9.1-3.63,1.8-2.29,2.68-5.87,2.68-10.94s-.88-8.64-2.68-10.94c-1.89-2.41-4.96-3.63-9.1-3.63h-61.82v-53.43c0-4.89-1.04-8.36-3.19-10.62h0c-2.18-2.28-5.59-3.39-10.45-3.39s-8.28,1.11-10.45,3.39c-2.15,2.25-3.19,5.73-3.19,10.62v53.43h-29.52c-4.15,0-7.21,1.22-9.1,3.63-1.8,2.29-2.68,5.87-2.68,10.94s.88,8.64,2.68,10.94c1.89,2.41,4.95,3.63,9.1,3.63h29.52v67.66c0,22.02,4.23,38.87,12.58,50.07,8.49,11.38,22.01,17.16,40.19,17.16,8.8,0,18.4-2,28.52-5.96,10.06-3.93,19.31-9.02,27.46-15.12,3.95-2.85,5.95-6.63,5.95-11.23,0-2.63-.71-5.6-2.19-9.12-2.82-6.43-6.47-9.7-10.84-9.7Z"/><path d="m1119.98,212.09c-6.6-13.88-15.84-24.87-27.48-32.68h0c-11.67-7.83-24.95-11.79-39.47-11.79s-27.8,3.97-39.47,11.79c-11.64,7.81-20.88,18.8-27.48,32.68-6.57,13.82-9.9,29.62-9.9,46.96s3.33,33.14,9.9,46.96c6.59,13.88,15.84,24.87,27.48,32.68,11.67,7.83,24.95,11.79,39.47,11.79s27.79-3.97,39.47-11.79c11.64-7.8,20.88-18.8,27.48-32.68,6.57-13.82,9.9-29.62,9.9-46.96s-3.33-33.14-9.9-46.96Zm-41.6,99.54c-7.23,4.98-15.76,7.5-25.34,7.5s-18.11-2.52-25.34-7.5c-7.26-5-12.96-12.11-16.93-21.15-4.01-9.12-6.04-19.7-6.04-31.44s2.03-22.32,6.04-31.44c3.96-9.03,9.66-16.14,16.93-21.14,7.24-4.98,15.76-7.5,25.34-7.5s18.11,2.52,25.34,7.5c7.26,5,12.96,12.11,16.93,21.14,4.01,9.13,6.04,19.71,6.04,31.44s-2.03,22.31-6.04,31.44c-3.97,9.04-9.67,16.15-16.93,21.15Z"/><path d="m1258.15,226.59c5.51-4.41,9.89-9.86,13.06-16.26,3.69-7.45,5.57-16.11,5.57-25.74,0-12.19-2.23-23.02-6.64-32.19-4.45-9.25-11.17-16.54-19.97-21.65h0c-8.76-5.08-19.5-7.66-31.9-7.66h-77.79c-4.15,0-7.21,1.22-9.1,3.63-1.8,2.29-2.68,5.87-2.68,10.94s.88,8.65,2.68,10.94c1.89,2.41,4.95,3.63,9.1,3.63h16.94v165.07h-16.94c-4.15,0-7.21,1.22-9.1,3.63-1.8,2.29-2.68,5.87-2.68,10.94s.88,8.65,2.68,10.93c1.89,2.41,4.95,3.63,9.1,3.63h88.04c12.92,0,24.12-2.64,33.28-7.84,9.21-5.23,16.33-12.78,21.15-22.47,4.78-9.6,7.2-21.15,7.2-34.33,0-13.99-3.05-25.94-9.08-35.53-5.46-8.67-13.15-15.28-22.9-19.66Zm3.45,55.19c0,11.32-3.26,20.16-9.7,26.26-6.47,6.13-15.9,9.24-28.05,9.24h-39.15v-71.57h39.92c24.88,0,36.97,11.8,36.97,36.06Zm-76.9-65.19v-64.37h30.14c11.52,0,20.19,2.73,25.78,8.12,5.57,5.38,8.39,13.53,8.39,24.24s-2.88,18.2-8.55,23.69c-5.7,5.51-14.32,8.31-25.63,8.31h-30.14Z"/><path d="m1453.43,317.29h-5.43c-3.54,0-8.25-1.31-8.25-12.6v-73.54c0-20.75-5.09-36.69-15.14-47.38-10.08-10.72-25.3-16.15-45.24-16.15-10.18,0-20.47,1.49-30.6,4.42-10.12,2.93-19.72,7.2-28.51,12.69-4.45,2.72-6.7,6.65-6.7,11.68,0,2.25.6,4.9,1.84,8.11,2.59,6.74,6.09,10.15,10.41,10.15,1.82,0,3.8-.66,5.85-1.95,7.38-4.45,15.28-7.99,23.47-10.52,8.15-2.52,16.1-3.79,23.63-3.79,11.92,0,20.61,2.63,25.84,7.83,5.22,5.19,7.87,13.57,7.87,24.91v12.74c-14.37-5.61-29.57-8.46-45.2-8.46-18.91,0-34.58,4.84-46.58,14.39-12.14,9.66-18.3,24.7-18.3,44.71,0,11.51,2.38,21.6,7.09,29.99,4.72,8.43,11.34,14.95,19.67,19.36,8.27,4.38,17.92,6.61,28.65,6.61,11.33,0,22.2-2.49,32.32-7.41,9.06-4.4,17.64-10.56,25.55-18.31,1.78,6.46,4.88,11.56,9.25,15.19,5.16,4.29,11.42,6.47,18.59,6.47h9.94c4.15,0,7.21-1.22,9.1-3.63,1.8-2.29,2.68-5.87,2.68-10.94s-.88-8.64-2.68-10.94c-1.89-2.41-4.96-3.63-9.1-3.63Zm-40.97-44.1v18.04c-15.98,19.38-34.06,29.2-53.74,29.2-8.85,0-15.77-2.33-20.59-6.93-4.79-4.57-7.22-11.14-7.22-19.52,0-10,3.1-17.05,9.48-21.56,6.51-4.6,15.6-6.93,27.03-6.93,8.01,0,16.1.71,24.03,2.09,7.42,1.3,14.48,3.19,21.02,5.6Z"/><path d="m1590.92,249.08c-5.59-2.38-11.61-4.2-17.88-5.39-6.15-1.17-14.36-2.45-24.43-3.81-7.05-.85-12.9-1.65-17.38-2.39-4.35-.71-8.21-1.73-11.48-3.03-3.81-1.47-6.71-3.34-8.6-5.54-1.82-2.11-2.7-4.82-2.7-8.3,0-7.04,2.51-12.35,7.67-16.23,5.26-3.96,12.77-5.97,22.32-5.97,12.67,0,23.25,2.01,31.42,5.99,8.01,3.9,14.22,10.74,18.46,20.37,1.77,3.91,4.98,5.98,9.28,5.98,4.79,0,8.31-1.14,10.45-3.39,2.15-2.26,3.19-5.73,3.19-10.62v-35.11c0-4.89-1.04-8.36-3.19-10.62h0c-2.18-2.28-5.59-3.39-10.45-3.39s-8.28,1.11-10.45,3.39c-2.15,2.25-3.19,5.73-3.19,10.62v3.53c-5.43-4.98-11.71-9.01-18.72-12.02-8.55-3.66-18.08-5.52-28.35-5.52-10.8,0-20.63,2.05-29.19,6.11-8.65,4.09-15.52,10.23-20.42,18.22-4.88,7.98-7.36,17.63-7.36,28.67s2.23,19.31,6.62,25.96c4.38,6.62,10.58,11.87,18.44,15.58,5.61,2.64,11.82,4.68,18.46,6.06,6.54,1.36,14.79,2.67,24.55,3.91,7.18.86,13.16,1.75,17.79,2.66,4.57.9,8.67,2.02,12.13,3.31,3.92,1.59,6.95,3.64,9,6.08,1.98,2.36,2.95,5.33,2.95,9.06,0,8.06-2.91,14.32-8.88,19.14-6.03,4.86-14.9,7.32-26.38,7.32-14.05,0-25.39-2.63-33.72-7.83-8.24-5.13-14.22-13.47-17.8-24.82-1.05-3.05-2.28-5.21-3.78-6.63-1.62-1.53-3.81-2.3-6.5-2.3-4.86,0-8.28,1.11-10.45,3.39-2.15,2.25-3.19,5.73-3.19,10.62v44.35c0,4.89,1.04,8.37,3.19,10.62,2.17,2.28,5.59,3.39,10.46,3.39s8.28-1.11,10.45-3.39c2.15-2.26,3.19-5.73,3.19-10.62v-5.17c5.69,5.81,12.2,10.33,19.41,13.47,8.7,3.79,18.89,5.71,30.3,5.71,12.88,0,24.13-2.37,33.43-7.05,9.37-4.71,16.6-11.48,21.49-20.11,4.86-8.58,7.32-18.7,7.32-30.09s-2.44-20.83-7.26-27.92c-4.8-7.06-11.6-12.52-20.2-16.24Z"/><path d="m1778.28,209.55c-5.82-13.04-14.29-23.39-25.16-30.77h0c-10.9-7.4-24.21-11.16-39.55-11.16s-28,3.87-39.46,11.52c-11.44,7.63-20.51,18.5-26.94,32.32-6.41,13.75-9.66,29.77-9.66,47.59s2.98,35.04,8.86,48.65c5.93,13.74,14.7,24.42,26.06,31.75,11.35,7.32,25.2,11.04,41.14,11.04,11.1,0,22.3-1.52,33.29-4.5,11-2.99,20.67-6.98,28.76-11.85,5.18-3.08,7.81-7.51,7.81-13.17,0-2.32-.51-4.91-1.51-7.68-2.58-7.39-6.19-11.13-10.74-11.13-1.83,0-3.8.66-5.94,2.01-6.85,4.67-14.92,8.47-24,11.29-9.08,2.82-18.39,4.25-27.67,4.25-14.76,0-26.3-4.53-34.3-13.47-7.76-8.67-12.18-21.56-13.13-38.33h110.32c4.11,0,7.15-1.1,9.04-3.27,1.85-2.12,2.74-5.45,2.74-10.28-.84-16.8-4.19-31.87-9.95-44.79Zm-94.95-.12c7.91-7.31,18.09-11.02,30.24-11.02,12.86,0,23.13,3.58,30.53,10.63,7.03,6.7,11.73,16.45,14,28.98h-90.06c2.66-12.06,7.8-21.67,15.29-28.59Z"/><path d="m397.06,114.42c-4.69-4.69-12.29-4.69-16.97,0-21.07,21.07-55.4,15.05-85.43-14.98h0c-46.86-46.86-122.84-46.86-169.71,0-46.84,46.84-46.86,122.76-.08,169.63h0s.07.08.07.08c0,0,0,0,0,0l58.69,58.69c4.69,4.69,12.28,4.69,16.97,0,4.69-4.69,4.69-12.28,0-16.97l-58.69-58.69,33.94-33.94,58.69,58.69c4.69,4.69,12.28,4.69,16.97,0,4.69-4.69,4.69-12.28,0-16.97l-58.69-58.69,33.94-33.94,58.69,58.69c4.69,4.69,12.28,4.69,16.97,0,4.69-4.69,4.69-12.28,0-16.97l-58.69-58.69,33.94-33.94c19.61,19.61,41.45,31.34,63.14,33.91,2.98.35,5.94.53,8.85.53,18.1,0,34.67-6.75,47.38-19.45,4.69-4.69,4.69-12.28,0-16.97Zm-242.68,74.54c-7.22,7.22-18.94,7.22-26.16,0-7.22-7.22-7.22-18.94,0-26.16,7.22-7.22,18.94-7.22,26.16,0,7.22,7.22,7.22,18.94,0,26.16Zm60.1-60.1c-7.22,7.22-18.94,7.22-26.16,0-7.22-7.22-7.22-18.94,0-26.16,7.22-7.22,18.94-7.22,26.16,0,7.22,7.22,7.22,18.94,0,26.16Z"/><path d="m345.25,201.07h0s-58.9-58.9-58.9-58.9c-4.69-4.69-12.28-4.69-16.97,0-4.69,4.69-4.69,12.28,0,16.97l58.69,58.69-33.94,33.94-58.69-58.69c-4.69-4.69-12.28-4.69-16.97,0h0c-4.69,4.69-4.69,12.28,0,16.97l58.69,58.69-33.94,33.94-58.69-58.69c-4.69-4.69-12.28-4.69-16.97,0h0c-4.69,4.69-4.69,12.28,0,16.97l58.69,58.69-33.94,33.94c-19.61-19.61-41.45-31.34-63.14-33.91-21.51-2.55-41.48,4.17-56.23,18.92-4.69,4.69-4.69,12.28,0,16.97,4.69,4.69,12.28,4.69,16.97,0,21.07-21.07,55.4-15.05,85.43,14.98,0,0,0,0,0,0,46.86,46.86,122.84,46.86,169.7,0,46.79-46.79,46.86-122.61.21-169.49Zm-63.57,166.24c-7.22,7.22-18.94,7.22-26.16,0-7.22-7.23-7.22-18.94,0-26.16,7.22-7.22,18.94-7.22,26.16,0,7.22,7.22,7.22,18.94,0,26.16Zm60.1-60.1c-7.22,7.22-18.94,7.22-26.16,0-7.22-7.23-7.22-18.94,0-26.16,7.22-7.22,18.94-7.22,26.16,0,7.22,7.22,7.22,18.94,0,26.16Z"/><rect class="cls-1" width="1855.38" height="470"/></g></svg>